<svg xmlns="http://www.w3.org/2000/svg" xmlns:xlink="http://www.w3.org/1999/xlink" viewBox="0 0 762.56 226.88"><defs><style>.cls-1{fill:url(#linear-gradient);}.cls-2{fill:url(#linear-gradient-2);}.cls-3{fill:url(#linear-gradient-3);}.cls-4{fill:url(#linear-gradient-4);}.cls-5{fill:url(#linear-gradient-5);}.cls-6{fill:url(#linear-gradient-6);}.cls-7{fill:url(#linear-gradient-7);}.cls-8{fill:url(#linear-gradient-8);}.cls-9{fill:url(#linear-gradient-9);}.cls-10{fill:url(#linear-gradient-10);}.cls-11{fill:url(#linear-gradient-11);}.cls-12{fill:url(#linear-gradient-12);}.cls-13{fill:url(#linear-gradient-13);}</style><linearGradient id="linear-gradient" x1="321.01" y1="240.77" x2="298.46" y2="324.93" gradientUnits="userSpaceOnUse"><stop offset="0" stop-color="#57bf92"/><stop offset="0.17" stop-color="#53b394"/><stop offset="0.47" stop-color="#479398"/><stop offset="0.88" stop-color="#345f9f"/><stop offset="1" stop-color="#2e4ea1"/></linearGradient><linearGradient id="linear-gradient-2" x1="378.41" y1="248.02" x2="357.23" y2="327.08" xlink:href="#linear-gradient"/><linearGradient id="linear-gradient-3" x1="425.49" y1="241.55" x2="403.81" y2="322.45" xlink:href="#linear-gradient"/><linearGradient id="linear-gradient-4" x1="458.75" y1="243.24" x2="437.56" y2="322.29" xlink:href="#linear-gradient"/><linearGradient id="linear-gradient-5" x1="493.04" y1="243.24" x2="471.86" y2="322.29" xlink:href="#linear-gradient"/><linearGradient id="linear-gradient-6" x1="566.38" y1="240.77" x2="543.83" y2="324.93" xlink:href="#linear-gradient"/><linearGradient id="linear-gradient-7" x1="619.02" y1="264.06" x2="603.38" y2="322.4" xlink:href="#linear-gradient"/><linearGradient id="linear-gradient-8" x1="697.23" y1="256.8" x2="678.5" y2="326.7" xlink:href="#linear-gradient"/><linearGradient id="linear-gradient-9" x1="779.77" y1="264.92" x2="764.11" y2="323.36" xlink:href="#linear-gradient"/><linearGradient id="linear-gradient-10" x1="110.18" y1="230.08" x2="83.45" y2="349.08" xlink:href="#linear-gradient"/><linearGradient id="linear-gradient-11" x1="208.08" y1="232.99" x2="170.29" y2="391.85" gradientUnits="userSpaceOnUse"><stop offset="0" stop-color="#57bf92"/><stop offset="0.08" stop-color="#53b394"/><stop offset="0.51" stop-color="#3f7d9b"/><stop offset="0.83" stop-color="#335b9f"/><stop offset="1" stop-color="#2e4ea1"/></linearGradient><linearGradient id="linear-gradient-12" x1="205.25" y1="192.91" x2="173.04" y2="257.32" gradientUnits="userSpaceOnUse"><stop offset="0" stop-color="#57bf92"/><stop offset="0.03" stop-color="#55bb93"/><stop offset="0.34" stop-color="#448c99"/><stop offset="0.62" stop-color="#386a9d"/><stop offset="0.85" stop-color="#3155a0"/><stop offset="1" stop-color="#2e4ea1"/></linearGradient><linearGradient id="linear-gradient-13" x1="187.55" y1="243.05" x2="187.55" y2="310.22" gradientUnits="userSpaceOnUse"><stop offset="0" stop-color="#57bf92"/><stop offset="0.75" stop-color="#44929e"/><stop offset="0.76" stop-color="#428c9e"/><stop offset="0.86" stop-color="#376aa0"/><stop offset="0.94" stop-color="#3055a1"/><stop offset="1" stop-color="#2e4ea1"/></linearGradient></defs><g id="Layer_6" data-name="Layer 6"><g id="Layer_4" data-name="Layer 4"><path class="cls-1" d="M328.85,243v22.49a13.53,13.53,0,0,0-3.93-.86,6.13,6.13,0,0,0-4.57,2,6.57,6.57,0,0,0-1.91,4.74,12.93,12.93,0,0,0,2.08,6l1.79,3.12q4.86,8.44,4.86,16.31A26.21,26.21,0,0,1,319,316.22a27.55,27.55,0,0,1-20,8,26.27,26.27,0,0,1-11.22-2.6V298.75a11.44,11.44,0,0,0,6,2.14,7.52,7.52,0,0,0,5.11-1.76,5.6,5.6,0,0,0,2.06-4.42q0-1.74-3.3-7.58a37.14,37.14,0,0,1-5.26-18.51,26.42,26.42,0,0,1,7.95-19.22,25.73,25.73,0,0,1,19-8.07A29,29,0,0,1,328.85,243Z" transform="translate(-36.4 -168.08)"/><path class="cls-2" d="M360.77,243.29v78.94H339.14V243.29Zm33.14,21.29-10.58,21,15.73,36.66H375.11l-13.53-37.64,9.83-20Z" transform="translate(-36.4 -168.08)"/><path class="cls-3" d="M424.62,264.58v57.65H403V264.58Zm-10.76-25.74a10.54,10.54,0,0,1,7.6,3.1,10.23,10.23,0,0,1,.18,14.71,11.92,11.92,0,0,1-15.56,0,10.23,10.23,0,0,1,.18-14.71A10.55,10.55,0,0,1,413.86,238.84Z" transform="translate(-36.4 -168.08)"/><path class="cls-4" d="M459,243.29v78.94H437.34V243.29Z" transform="translate(-36.4 -168.08)"/><path class="cls-5" d="M493.26,243.29v78.94H471.63V243.29Z" transform="translate(-36.4 -168.08)"/><path class="cls-6" d="M574.22,243v22.49a13.4,13.4,0,0,0-3.93-.86,6.16,6.16,0,0,0-4.57,2,6.57,6.57,0,0,0-1.91,4.74,13,13,0,0,0,2.09,6l1.79,3.12q4.86,8.44,4.86,16.31a26.18,26.18,0,0,1-8.19,19.49,27.52,27.52,0,0,1-20,8,26.3,26.3,0,0,1-11.22-2.6V298.75a11.47,11.47,0,0,0,6,2.14,7.57,7.57,0,0,0,5.12-1.76,5.59,5.59,0,0,0,2-4.42q0-1.74-3.29-7.58a37.16,37.16,0,0,1-5.27-18.51,26.42,26.42,0,0,1,7.95-19.22,25.75,25.75,0,0,1,19-8.07A29,29,0,0,1,574.22,243Z" transform="translate(-36.4 -168.08)"/><path class="cls-7" d="M641.19,296.9H608.4a15.88,15.88,0,0,1-.75-4.57,16.1,16.1,0,0,1,1-5.66h11q-1.15-6.42-7.23-6.42a7.84,7.84,0,0,0-6.59,3.44,14.41,14.41,0,0,0-2.55,8.82,15.38,15.38,0,0,0,2.46,9.08,7.57,7.57,0,0,0,6.45,3.47q3.24,0,6.24-3.24l12.32,14.8a30.24,30.24,0,0,1-19.14,6.77,29.48,29.48,0,0,1-21.57-8.62,30.4,30.4,0,0,1,.09-42.73,29.57,29.57,0,0,1,21.65-8.74,29.14,29.14,0,0,1,29.61,29.55C641.42,293.7,641.34,295.05,641.19,296.9Z" transform="translate(-36.4 -168.08)"/><path class="cls-8" d="M650.16,265.39h21.62v31.05a11.86,11.86,0,0,0,.75,5.06,2.81,2.81,0,0,0,2.72,1.42q3.64,0,3.65-6.48V265.39h21.63v31.05a11.45,11.45,0,0,0,.78,5.06,2.85,2.85,0,0,0,2.74,1.42q3.59,0,3.59-6.48V265.39h21.63v35.5a22.92,22.92,0,0,1-6.54,16.51,21.18,21.18,0,0,1-15.84,6.8q-9.6,0-17.24-8.1-8.45,8.1-17,8.1-10.81,0-17.35-7.87-5.14-6.18-5.14-17.86Z" transform="translate(-36.4 -168.08)"/><path class="cls-9" d="M774,300.6V323a28.39,28.39,0,0,1-4.86.47q-13,0-21.69-8.56t-8.67-21.46a29.86,29.86,0,0,1,30.07-30q14,0,22.06,8.18T799,294v28.28H777.32V295.52a11.17,11.17,0,0,0-2.22-7.29,7.36,7.36,0,0,0-6-2.72A8.51,8.51,0,0,0,763,299.79a7.64,7.64,0,0,0,5.73,2.32A9.77,9.77,0,0,0,774,300.6Z" transform="translate(-36.4 -168.08)"/></g></g><g id="logo"><path class="cls-10" d="M104.93,380.44c-6.72-4.1-10.53-8.69-12.06-9.5-5.71-.4-14.51-2.88-18.84-6-23-16.76-14.31-67.81,19.37-114,19.77-27.11,43.86-45.56,65-53.59-23.37-6.69-51.78,4.48-65.58,16.75a137.12,137.12,0,0,0-20.34,22.36c-41.91,57.47-48.18,124.26-14,149.16,18.09,13.19,43.9,12,70.4-.59C127.36,384.83,115.54,386.89,104.93,380.44Z" transform="translate(-36.4 -168.08)"/><path class="cls-11" d="M262.23,317.33q0,15.75-12.84,27t-31.24,11.29H179a275.23,275.23,0,0,0,24.51-29.29h14.68a10.09,10.09,0,0,0,6.86-2.57,8.57,8.57,0,0,0,0-12.92,10.1,10.1,0,0,0-6.86-2.58h-10c-1,1.69-2,3.39-3,5.07q-4.17,6.7-9,13.27c-16.74,22.95-33.32,38.16-48.63,47.58-22.45,13.81-42.33,1.19-47.11-4.78,10.31-1.91,21.78-7.11,33.39-15.08H121.93a.23.23,0,0,1-.23-.23,29.05,29.05,0,0,1,29.05-29.05H166c3.21-3.72,6.36-7.61,9.39-11.71.44-.58.87-1.16,1.3-1.75.81-1.1,1.6-2.2,2.37-3.32h-5q-18.44,0-31.26-11.29T130,270q0-15.76,12.83-27t31.26-11.29h28.4a109.9,109.9,0,0,1-6.33,29.29H174.06a10.14,10.14,0,0,0-6.86,2.57,8.57,8.57,0,0,0,0,12.92,10.06,10.06,0,0,0,6.86,2.59h44.09q18.4,0,31.24,11.28T262.23,317.33Z" transform="translate(-36.4 -168.08)"/><text x="-36.4" y="-168.08"/><path class="cls-12" d="M253.35,241.62a29,29,0,0,0-20.54-8.51h-.69c.86-24.06-6.3-44.25-21.94-55.65-24.15-17.6-62-9.57-96.94,16.92,6-1.76,12-3.54,18.36-4.27,13.48-1.57,21.09-2.27,40,3.49,9.48-1.41,17.92-.78,24.48,4,16.79,12.25,16.69,42.78,2.28,76.35h19.83q3,0,5.82.26c1.38-4,2.58-7.91,3.61-11.82h34a.22.22,0,0,0,.23-.22A29,29,0,0,0,253.35,241.62Z" transform="translate(-36.4 -168.08)"/><path class="cls-13" d="M261.86,262.17a.22.22,0,0,1-.23.22h-34c-1,3.91-2.23,7.86-3.61,11.82q-2.86-.25-5.82-.26H198.32c14.41-33.57,14.51-64.1-2.28-76.35-6.56-4.78-15-5.41-24.48-4-18.87-5.76-26.48-5.06-40-3.49-6.33.73-12.35,2.51-18.36,4.27,34.93-26.49,72.79-34.52,96.94-16.92,15.64,11.4,22.8,31.59,21.94,55.65h.69a29.05,29.05,0,0,1,29.05,29.06Z" transform="translate(-36.4 -168.08)"/></g></svg>